<svg xmlns="http://www.w3.org/2000/svg" xmlns:xlink="http://www.w3.org/1999/xlink" width="392" height="143" viewBox="0 0 392 143">
  <defs>
    <filter id="Rectangle_5393" x="-9" y="-6" width="410" height="161" filterUnits="userSpaceOnUse">
      <feOffset dy="3" input="SourceAlpha"/>
      <feGaussianBlur stdDeviation="3" result="blur"/>
      <feFlood flood-opacity="0.161"/>
      <feComposite operator="in" in2="blur"/>
      <feComposite in="SourceGraphic"/>
    </filter>
    <clipPath id="clip-path">
      <g transform="matrix(1, 0, 0, 1, 0, 0)" filter="url(#Rectangle_5393)">
        <rect id="Rectangle_5393-2" data-name="Rectangle 5393" width="392" height="143" rx="15" transform="translate(389 5688)" fill="#191919"/>
      </g>
    </clipPath>
  </defs>
  <g id="Mask_Group_1" data-name="Mask Group 1" transform="translate(-389 -5688)" clip-path="url(#clip-path)">
    <path id="Path_1634" data-name="Path 1634" d="M-539.483-175.417a76.993,76.993,0,0,0,3.434-22.808,77.589,77.589,0,0,0-1.093-13c-3.178-14.759-12.388-24.029-18.1-26.887a17.5,17.5,0,0,1,9.059,1.679q-1.155-2.016-2.425-3.953c-7.155-10.512-15.236-14.131-23.319-16.882a18.435,18.435,0,0,1,7.652-.56,77.222,77.222,0,0,0-10.088-7.01,76.566,76.566,0,0,0-33.506-10.254,29.612,29.612,0,0,1,15.93-4.246,76.663,76.663,0,0,0-39.684-11,76.693,76.693,0,0,0-45.961,15.208c-.892-.085-1.8-.133-2.712-.133a28.372,28.372,0,0,0-26.722,18.849q2.142-.631,4.357-1.082a47.909,47.909,0,0,1,8.723-1.1c.544-.018,1.086-.042,1.633-.042a47.709,47.709,0,0,1,12.752,1.727,51.679,51.679,0,0,1,38.824,50.05A51.666,51.666,0,0,1-685.32-155.69,77.15,77.15,0,0,0-675.47-142a77.514,77.514,0,0,0,13.155,11.632c35.332-16.748,55.893-64.758,41.146-100.954,20.408,35.093.594,105.727-29.223,131.151.276.106.559.2.837.3,7.986-.253,28.619-1.717,47.471-9.8,18.685-40.569,22.244-106.461-3.933-138.846,31.8,32.491,38.81,80.8,23.019,121.241a77.335,77.335,0,0,0,35.644-30.753c5.1-18.852.639-47.726-13.644-62.522C-545.478-209.024-539.436-187.188-539.483-175.417Zm-125.842-93.747a.689.689,0,0,1-.274-.05c-1.442-.618-3.9-3.916-3.9-3.916,1.633-.2,10.285-1,11.831-2C-658.641-273.92-663.569-269.163-665.325-269.164Z" transform="translate(1303.023 5986.291)" fill="#fff"/>
  </g>
</svg>
